PathFileType	4	(X/Y/Z)	/Users/itak/Documents/Research/Walk-IL/dataset/trc/00142_00007.trc
DataRate	CameraRate	NumFrames	NumMarkers	Units	OrigDataRate	OrigDataStartFrame	OrigNumFrames
100.000000	100.000000	4	53	mm	100.000000	270	540
Frame#	Time	RPSI			LPSI			L3			STRN			T10			C7			CLAV			RBAK			LBAK			LSHO			LUPA			LAEL			LAOL			LWTS			LWPS			LFRA			LIFD			LHPS			LHTS			RSHO			RUPA			RAEL			RAOL			RWTS			RWPS			RFRA			RIFD			RHTS			RHPS			RBHD			LFHD			RFHD			LBHD			LHIP			RHIP			RASI			LASI			LKNE			LTHI			LANK			LTIP			LTOE			LMT1			LMT5			LHEE			RKNE			RTHI			RANK			RTIP			RTOE			RMT1			RMT5			RHEE			
		X1	Y1	Z1	X2	Y2	Z2	X3	Y3	Z3	X4	Y4	Z4	X5	Y5	Z5	X6	Y6	Z6	X7	Y7	Z7	X8	Y8	Z8	X9	Y9	Z9	X10	Y10	Z10	X11	Y11	Z11	X12	Y12	Z12	X13	Y13	Z13	X14	Y14	Z14	X15	Y15	Z15	X16	Y16	Z16	X17	Y17	Z17	X18	Y18	Z18	X19	Y19	Z19	X20	Y20	Z20	X21	Y21	Z21	X22	Y22	Z22	X23	Y23	Z23	X24	Y24	Z24	X25	Y25	Z25	X26	Y26	Z26	X27	Y27	Z27	X28	Y28	Z28	X29	Y29	Z29	X30	Y30	Z30	X31	Y31	Z31	X32	Y32	Z32	X33	Y33	Z33	X34	Y34	Z34	X35	Y35	Z35	X36	Y36	Z36	X37	Y37	Z37	X38	Y38	Z38	X39	Y39	Z39	X40	Y40	Z40	X41	Y41	Z41	X42	Y42	Z42	X43	Y43	Z43	X44	Y44	Z44	X45	Y45	Z45	X46	Y46	Z46	X47	Y47	Z47	X48	Y48	Z48	X49	Y49	Z49	X50	Y50	Z50	X51	Y51	Z51	X52	Y52	Z52	X53	Y53	Z53	

271	2.7	8.079025268554688	1108.222412109375	1161.429321289062	-45.17781829833984	1108.054077148438	1037.21826171875	-26.43487358093262	1144.433349609375	1097.366943359375	174.2553100585938	1340.398193359375	1013.898010253906	-65.79882049560547	1296.708984375	1101.019409179688	-30.9651985168457	1588.242065429688	1065.7021484375	142.4033813476562	1475.689086914062	1022.203857421875	-60.67288208007812	1405.368408203125	1169.297607421875	-68.83370208740234	1566.444946289062	970.2670288085938	-5.295335292816162	1548.700439453125	881.7935180664062	-34.19633865356445	1416.050537109375	818.724365234375	7.92712926864624	1200.822021484375	786.2574462890625	-37.88053131103516	1176.011962890625	857.6834106445312	172.3545684814453	976.2149658203125	793.32080078125	96.02316284179688	930.0726318359375	785.9347534179688	46.96992492675781	1090.548950195312	774.2340698242188	241.9546356201172	794.3033447265625	792.687744140625	142.2883148193359	865.332275390625	774.6581420898438	205.4374389648438	895.370361328125	774.6964721679688	75.68247985839844	1568.875122070312	1223.1962890625	73.70130157470703	1496.854370117188	1290.077392578125	49.65170288085938	1206.084106445312	1321.663452148438	21.8053035736084	1202.358642578125	1227.4228515625	159.2234191894531	947.2193603515625	1289.882080078125	93.43643951416016	942.0816040039062	1339.3564453125	69.19257354736328	1131.911499023438	1335.567626953125	157.1358642578125	750.3232421875	1280.999267578125	174.4515838623047	836.7406616210938	1294.561401367188	116.5603179931641	838.5797729492188	1338.38623046875	77.06494903564453	1775.304443359375	1109.085083007812	142.3905639648438	1791.854614257812	896.0919189453125	215.4671630859375	1812.484741210938	1002.112609863281	-5.515199661254883	1759.251831054688	1002.994567871094	-9.019850730895996	1017.866882324219	897.7099609375	178.1719970703125	1020.801513671875	1218.034057617188	224.0391998291016	1090.825805664062	1134.239501953125	110.5197830200195	1079.569580078125	894.879638671875	-2.888904333114624	511.3449401855469	971.4312133789062	-18.24627494812012	660.7443237304688	935.765380859375	-271.309326171875	74.51995086669922	1088.229736328125	-181.1348724365234	305.0424194335938	1009.643371582031	-43.00535202026367	36.67637252807617	1135.40283203125	-120.1105041503906	55.58896636962891	1167.441284179688	-154.0143127441406	42.69933319091797	1058.358154296875	-332.119384765625	107.5262756347656	1152.879028320312	308.3771667480469	559.4515991210938	1119.137084960938	250.6307373046875	824.1478881835938	1180.414306640625	332.1386413574219	31.02970314025879	1141.94921875	329.1048278808594	423.9335021972656	1133.574462890625	470.0895080566406	82.79015350341797	961.4692993164062	402.7417297363281	61.42040252685547	961.0064697265625	446.078369140625	48.71512603759766	1073.689208984375	255.5202026367188	30.4564380645752	1135.913452148438	
272	2.71	19.11261367797852	1109.848266601562	1159.889526367188	-35.80231475830078	1109.087158203125	1036.408203125	-16.42105484008789	1145.683349609375	1096.3125	182.8940734863281	1342.076049804688	1010.628540039062	-56.08001327514648	1297.770874023438	1100.157958984375	-22.2799129486084	1589.35595703125	1064.784912109375	150.8499908447266	1477.291381835938	1019.4345703125	-50.50367736816406	1406.35986328125	1168.3720703125	-61.06485366821289	1567.691040039062	969.7196655273438	1.589405179023743	1550.220825195312	880.5993041992188	-28.08924674987793	1417.632568359375	817.6804809570312	12.75288963317871	1202.155395507812	785.407958984375	-32.77651977539062	1177.96142578125	857.2305908203125	173.7047424316406	974.7867431640625	792.0313110351562	96.51377105712891	930.0421752929688	785.268798828125	50.20843124389648	1091.319580078125	773.3635864257812	239.8902282714844	791.5840454101562	791.40869140625	141.5140075683594	864.4421997070312	773.8300170898438	205.1639251708984	893.2583618164062	773.4071044921875	85.93573760986328	1570.128662109375	1221.14111328125	84.78392791748047	1498.08056640625	1287.95068359375	61.36128616333008	1207.331176757812	1319.474853515625	32.77678298950195	1203.652587890625	1225.40771484375	170.6675109863281	948.413818359375	1286.933837890625	105.1975784301758	943.3480224609375	1336.8642578125	81.019775390625	1133.167602539062	1333.226440429688	168.1830291748047	751.4485473632812	1278.270751953125	185.8782806396484	837.9252319335938	1291.61865234375	128.2963562011719	839.8418579101562	1335.87158203125	86.17343902587891	1776.807983398438	1106.989990234375	149.224853515625	1793.281127929688	893.3096923828125	223.3502807617188	1813.896118164062	998.599365234375	2.510802984237671	1760.541381835938	1001.787048339844	-0.8806583285331726	1018.613830566406	896.7710571289062	189.9887390136719	1022.902404785156	1214.766723632812	234.7221069335938	1092.839477539062	1130.267333984375	118.2660827636719	1080.858276367188	892.4873046875	9.804084777832031	511.0487060546875	966.8888549804688	-6.940803527832031	660.935546875	933.0149536132812	-269.0297546386719	79.75479888916016	1087.639526367188	-173.2794189453125	308.7922973632812	1007.811340332031	-42.98117828369141	36.63743591308594	1134.933837890625	-118.7715682983398	57.06154632568359	1166.64404296875	-153.5698089599609	42.68752670288086	1058.463500976562	-327.8735046386719	116.3052825927734	1152.113891601562	316.0467224121094	559.7864990234375	1115.24169921875	261.0221557617188	825.402099609375	1176.095825195312	332.7261962890625	30.91766738891602	1142.107788085938	335.5596313476562	423.9397583007812	1130.334838867188	470.4696960449219	79.31620788574219	959.7647705078125	402.8217468261719	59.04817962646484	960.2769775390625	446.6419372558594	47.38706588745117	1072.939575195312	256.1734619140625	30.97525405883789	1136.376342773438	
273	2.72	30.15585327148438	1111.481567382812	1158.420654296875	-26.47094345092773	1110.195556640625	1035.719970703125	-6.404518127441406	1146.989135742188	1095.352661132812	191.4524993896484	1343.76123046875	1007.237609863281	-46.30030822753906	1298.910766601562	1099.40771484375	-13.55966663360596	1590.516479492188	1063.868530273438	159.2720642089844	1478.922485351562	1016.542724609375	-40.22978591918945	1407.442993164062	1167.475341796875	-53.31610488891602	1568.97216796875	969.20458984375	8.390509605407715	1551.821899414062	879.422607421875	-22.09734725952148	1419.328735351562	816.6353759765625	17.40780067443848	1203.580688476562	784.5712890625	-27.76597023010254	1180.029418945312	856.8181762695312	174.763916015625	973.4205932617188	790.8070678710938	96.68946838378906	930.131591796875	784.6990356445312	53.25075149536133	1092.192138671875	772.5269165039062	237.3901214599609	788.9248657226562	790.3350219726562	140.3773345947266	863.6688842773438	773.1290283203125	204.5392608642578	891.1974487304688	772.2445678710938	96.32057189941406	1571.464721679688	1218.9638671875	96.02806091308594	1499.427856445312	1285.733276367188	73.13867950439453	1208.702392578125	1317.30712890625	43.77657699584961	1205.052612304688	1223.446899414062	182.3776092529297	949.8152465820312	1283.906372070312	117.2376403808594	944.740478515625	1334.313110351562	92.94676971435547	1134.545532226562	1330.897827148438	179.6408996582031	752.7857055664062	1275.347778320312	197.6468963623047	839.315673828125	1288.531494140625	140.3886108398438	841.2454223632812	1333.223876953125	95.23065948486328	1778.298217773438	1104.849243164062	155.9468688964844	1794.823608398438	890.5321044921875	231.1435241699219	1815.40234375	995.0548095703125	10.455810546875	1761.853149414062	1000.556579589844	7.201472759246826	1019.40576171875	896.0474853515625	201.7856140136719	1024.912231445312	1211.412841796875	245.3128662109375	1094.783081054688	1126.18115234375	125.7197799682617	1082.164428710938	890.1015625	23.0493278503418	510.6965026855469	961.649658203125	4.69663143157959	661.1065673828125	929.8446655273438	-266.322998046875	85.53540802001953	1086.952514648438	-164.7680816650391	312.9005126953125	1005.610229492188	-43.02223968505859	36.62094497680664	1134.444580078125	-117.2095794677734	58.67904281616211	1165.753295898438	-153.1251525878906	42.69382476806641	1058.651245117188	-322.7882385253906	125.8893890380859	1151.138671875	323.2409973144531	559.9114990234375	1111.68359375	271.2260131835938	826.484619140625	1172.082763671875	333.2755126953125	30.81886291503906	1142.1767578125	341.5665283203125	423.8131713867188	1127.34228515625	470.6854858398438	76.23424530029297	958.103515625	402.7822875976562	56.98292922973633	959.58984375	447.1328735351562	46.47818374633789	1072.204711914062	256.7953491210938	31.39086532592773	1136.829345703125	
274	2.73	41.17034149169922	1113.090576171875	1157.010375976562	-17.22126388549805	1111.311279296875	1035.144653320312	3.601602792739868	1148.30517578125	1094.471069335938	199.9247589111328	1345.386840820312	1003.70654296875	-36.46035003662109	1300.078857421875	1098.775634765625	-4.793354511260986	1591.676879882812	1062.9638671875	167.6546630859375	1480.51123046875	1013.51123046875	-29.8357048034668	1408.571899414062	1166.638305664062	-45.60359573364258	1570.234497070312	968.7413330078125	15.07433128356934	1553.427368164062	878.2699584960938	-16.26279258728027	1421.049438476562	815.6195678710938	21.87650871276855	1205.01708984375	783.7413330078125	-22.85855293273926	1182.120727539062	856.440185546875	175.5798492431641	972.0822143554688	789.6296997070312	96.61743927001953	930.2899780273438	784.1891479492188	56.11300659179688	1093.092895507812	771.71484375	234.5461883544922	786.3123779296875	789.4844360351562	138.9628753662109	862.9637451171875	772.53955078125	203.6355895996094	889.1608276367188	771.203125	106.8778915405273	1572.821166992188	1216.655029296875	107.4819717407227	1500.83349609375	1283.41162109375	85.00050354003906	1210.135498046875	1315.183837890625	54.78997802734375	1206.501220703125	1221.55712890625	194.3462982177734	951.3658447265625	1280.78759765625	129.562255859375	946.19189453125	1331.701171875	104.9879302978516	1135.981689453125	1328.59423828125	191.5674285888672	754.29150390625	1272.216552734375	209.7725524902344	840.8636474609375	1285.282836914062	152.8574066162109	842.7281494140625	1330.43310546875	104.2212448120117	1779.718872070312	1102.665405273438	162.5451049804688	1796.429565429688	887.7672119140625	238.8337249755859	1816.95556640625	991.4777221679688	18.30209922790527	1763.14208984375	999.3048095703125	15.21502494812012	1020.152526855469	895.5639038085938	213.5086822509766	1026.819946289062	1207.981323242188	255.7839965820312	1096.607788085938	1121.982055664062	132.8450469970703	1083.419067382812	887.7372436523438	36.74307250976562	510.2881469726562	955.7393188476562	16.58296966552734	661.2296752929688	926.2567138671875	-263.1172485351562	91.88144683837891	1086.165405273438	-155.5766448974609	317.3262634277344	1003.030639648438	-43.1010856628418	36.5855712890625	1133.942626953125	-115.3651657104492	60.44257354736328	1164.766723632812	-152.6500396728516	42.79888534545898	1058.92138671875	-316.7723999023438	136.2110748291016	1149.94970703125	329.9524536132812	559.849609375	1108.518798828125	281.2048034667969	827.4080200195312	1168.397216796875	333.766845703125	30.72714805603027	1142.154418945312	347.100830078125	423.5567626953125	1124.666625976562	470.7852783203125	73.47278594970703	956.5112915039062	402.6536254882812	55.16621780395508	958.9481201171875	447.553955078125	45.87938690185547	1071.484985351562	257.3495483398438	31.7060661315918	1137.250122070312	
